<?xml version="1.0" encoding="UTF-8"?>
<svg width="18px" height="18px" viewBox="0 0 18 18" version="1.1" xmlns="http://www.w3.org/2000/svg" xmlns:xlink="http://www.w3.org/1999/xlink">
    <defs>
        <path d="M11.0035807,6.88216144 C8.72623697,6.88216144 6.8893229,8.71907551 6.8893229,10.9964193 C6.8893229,13.273763 8.72623697,15.1106771 11.0035807,15.1106771 C13.2809245,15.1106771 15.1178386,13.273763 15.1178386,10.9964193 C15.1178386,8.71907551 13.2809245,6.88216144 11.0035807,6.88216144 Z M11.0035807,13.671224 C9.53190103,13.671224 8.32877603,12.4716797 8.32877603,10.9964193 C8.32877603,9.52115885 9.52832031,8.32161457 11.0035807,8.32161457 C12.4788412,8.32161457 13.6783854,9.52115885 13.6783854,10.9964193 C13.6783854,12.4716797 12.4752604,13.671224 11.0035807,13.671224 L11.0035807,13.671224 Z M16.2457683,6.71386717 C16.2457683,7.24739581 15.8160808,7.67350259 15.2861328,7.67350259 C14.7526042,7.67350259 14.3264974,7.24381509 14.3264974,6.71386717 C14.3264974,6.18391925 14.7561849,5.75423174 15.2861328,5.75423174 C15.8160808,5.75423174 16.2457683,6.18391925 16.2457683,6.71386717 Z M18.9707032,7.6878255 C18.9098308,6.40234373 18.616211,5.26367185 17.6744792,4.3255208 C16.7363282,3.38736975 15.5976563,3.09374996 14.3121745,3.02929684 C12.9873047,2.95410152 9.01627603,2.95410152 7.69140623,3.02929684 C6.40950519,3.09016923 5.2708333,3.38378902 4.32910153,4.32194007 C3.38736975,5.26009112 3.09733069,6.398763 3.03287756,7.68424478 C2.95768225,9.00911457 2.95768225,12.9801432 3.03287756,14.305013 C3.09374996,15.5904948 3.38736975,16.7291667 4.32910153,17.6673177 C5.2708333,18.6054688 6.40592446,18.8990886 7.69140623,18.9635417 C9.01627603,19.038737 12.9873047,19.038737 14.3121745,18.9635417 C15.5976563,18.9026693 16.7363282,18.6090495 17.6744792,17.6673177 C18.6126302,16.7291667 18.90625,15.5904948 18.9707032,14.305013 C19.0458985,12.9801432 19.0458985,9.0126953 18.9707032,7.6878255 Z M17.2591146,15.7265625 C16.9798177,16.4283854 16.4391276,16.9690756 15.733724,17.2519532 C14.6774089,17.6708985 12.1708984,17.5742188 11.0035807,17.5742188 C9.83626302,17.5742188 7.32617186,17.6673177 6.27343748,17.2519532 C5.57161456,16.9726563 5.03092445,16.4319662 4.74804684,15.7265625 C4.32910153,14.6702474 4.42578122,12.163737 4.42578122,10.9964193 C4.42578122,9.82910156 4.33268226,7.3190104 4.74804684,6.26627602 C5.02734372,5.5644531 5.56803383,5.02376299 6.27343748,4.74088539 C7.32975259,4.32194007 9.83626302,4.41861976 11.0035807,4.41861976 C12.1708984,4.41861976 14.6809896,4.3255208 15.733724,4.74088539 C16.4355469,5.02018226 16.976237,5.56087237 17.2591146,6.26627602 C17.6780599,7.32259113 17.5813802,9.82910156 17.5813802,10.9964193 C17.5813802,12.163737 17.6780599,14.6738281 17.2591146,15.7265625 Z" id="path-1"></path>
    </defs>
    <g id="Page-1" stroke="none" stroke-width="1" fill="none" fill-rule="evenodd">
        <g id="5-copy-2" transform="translate(-95.000000, -1657.000000)">
            <g id="002" transform="translate(0.000000, 858.000000)">
                <g id="002-Side-Nav">
                    <g id="Menu-Side-Nav-Tags" transform="translate(23.000000, 646.000000)">
                        <g id="instagram" transform="translate(70.000000, 151.000000)">
                            <mask id="mask-2" fill="white">
                                <use xlink:href="#path-1"></use>
                            </mask>
                            <g fill-rule="nonzero"></g>
                            <g id="🎨-color" stroke-width="1" fill-rule="evenodd" mask="url(#mask-2)" fill="#304659" stroke="#1A1A1A">
                                <rect id="🎨-Color" stroke-width="2" fill-rule="nonzero" x="1" y="1" width="20" height="20"></rect>
                            </g>
                        </g>
                    </g>
                </g>
            </g>
        </g>
    </g>
</svg>