<?xml version="1.0" encoding="UTF-8"?>
<svg width="20px" height="16px" viewBox="0 0 20 16" version="1.1" xmlns="http://www.w3.org/2000/svg" xmlns:xlink="http://www.w3.org/1999/xlink">
    <defs>
        <path d="M18.2821289,7.26587238 C18.2937663,7.42872394 18.2937663,7.59161131 18.2937663,7.75446287 C18.2937663,12.7216504 14.513125,18.4450163 7.60321287,18.4450163 C5.47439776,18.4450163 3.49683264,17.8284506 1.83333329,16.758278 C2.13579748,16.7931543 2.4265885,16.8047917 2.74069006,16.8047917 C4.49721676,16.8047917 6.11420245,16.2115365 7.4054492,15.1994792 C5.75358721,15.1645671 4.36927731,14.0827214 3.89232418,12.5937109 C4.12499997,12.6285872 4.35763994,12.651862 4.60195309,12.651862 C4.93929359,12.651862 5.27666989,12.6053125 5.59073565,12.5239225 C3.86908525,12.1749089 2.57780269,10.6626595 2.57780269,8.83630858 L2.57780269,8.78979491 C3.07799475,9.06898437 3.65968421,9.2434733 4.27617835,9.26671223 C3.26412106,8.59199543 2.60107743,7.44036131 2.60107743,6.13747719 C2.60107743,5.43952146 2.78716793,4.79971677 3.11290686,4.24133786 C4.96253252,6.52136717 7.7427897,8.01034178 10.8603516,8.17322915 C10.8022005,7.8940397 10.7672884,7.60324868 10.7672884,7.31242186 C10.7672884,5.24175778 12.4424251,3.55501949 14.5246908,3.55501949 C15.6065365,3.55501949 16.5836817,4.00869788 17.2700358,4.74156572 C18.1192058,4.57871416 18.9334994,4.2646126 19.6547657,3.83420895 C19.3755404,4.70668942 18.7822852,5.43955726 18.0029037,5.90483721 C18.7590463,5.82344724 19.4919141,5.61401039 20.1665951,5.32321937 C19.6548373,6.06768878 19.0149968,6.7307324 18.2821289,7.26587238 Z" id="path-1"></path>
    </defs>
    <g id="Page-1" stroke="none" stroke-width="1" fill="none" fill-rule="evenodd">
        <g id="5-copy-2" transform="translate(-59.000000, -1658.000000)">
            <g id="002" transform="translate(0.000000, 858.000000)">
                <g id="002-Side-Nav">
                    <g id="Menu-Side-Nav-Tags" transform="translate(23.000000, 646.000000)">
                        <g id="twitter" transform="translate(35.000000, 151.000000)">
                            <mask id="mask-2" fill="white">
                                <use xlink:href="#path-1"></use>
                            </mask>
                            <g></g>
                            <g id="🎨-color" stroke-width="1" fill-rule="evenodd" mask="url(#mask-2)" fill="#304659" stroke="#1A1A1A">
                                <rect id="🎨-Color" stroke-width="2" fill-rule="nonzero" x="1" y="1" width="20" height="20"></rect>
                            </g>
                        </g>
                    </g>
                </g>
            </g>
        </g>
    </g>
</svg>